<?xml version="1.0"?>
<svg xmlns="http://www.w3.org/2000/svg" height="512px" viewBox="0 -78 437.11679 437" width="512px"><g><path d="m429.015625 60.058594c-.097656 0-.300781 0-.398437 0h-33.300782c-4.398437 0-8 3.601562-8 8v23.398437l-146.300781-20.398437v-15c0-4.398438-3.597656-8-8-8h-52v-32h116.300781c4.398438 0 8-3.601563 8-8 0-4.398438-3.601562-8.0000002-8-8.0000002h-248.601562c-4.398438 0-8 3.6015622-8 8.0000002 0 4.398437 3.601562 8 8 8h116.300781v32h-1.097656c-35 2-67.800781 17.199218-91.902344 42.601562-29.800781 32-43 79.296875-39.097656 139.796875.296875 4.203125 3.796875 7.5 8 7.5h42.296875v27.402344h-40.796875c-12.101563.898437-23.300781-6.300781-27.402344-17.699219-2.199219-3.902344-7-5.203125-10.898437-3.101562-2.699219 1.5-4.300782 4.5-4.101563 7.699218 6.300781 18 23.699219 29.800782 42.800781 29h218.601563c4.398437 0 8-3.597656 8-8 0-4.398437-3.601563-8-8-8h-80v-27.199218h52c4.398437 0 8-3.601563 8-8v-60.398438l188.796875-27.703125c4-.597656 6.902344-4 6.902344-8v-65.898437c-.101563-4.398438-3.601563-8-8.101563-8zm-345.300781 41.699218c13.203125-14.199218 29.703125-24.800781 48-31v99.300782h-80c3.902344-25.398438 15-49.101563 32-68.300782zm81.300781 163.699219h-65.800781v-27.398437h65.800781zm60-43.398437h-176.398437c-.5-12-.101563-24 1-36h90.398437c4.402344 0 8-3.601563 8-8v-112c5.300781-1.199219 10.601563-1.898438 16-2.199219h61zm195.601563-94.898438-179.601563 26.296875v-66.199219l153.199219 21.402344c4.402344.597656 8.402344-2.402344 9-6.800781.101562-.402344.101562-.800781.101562-1.199219v-24.601562h17.398438zm0 0" data-original="#000000" class="active-path" data-old_color="#000000" fill="#FFFFFF"/></g> </svg>
