<?xml version="1.0"?>
<svg xmlns="http://www.w3.org/2000/svg" xmlns:xlink="http://www.w3.org/1999/xlink" version="1.1" id="Capa_1" x="0px" y="0px" viewBox="0 0 331.393 331.393" style="enable-background:new 0 0 331.393 331.393;" xml:space="preserve" width="512px" height="512px"><g><g>
	<g>
		<path d="M324.267,6.193c-16.4-16.4-54,2.8-73.6,22.4l-20.8,22c-23.6-3.2-145.2-16.8-172.8-18c-35.2-1.2-54.4,21.6-55.2,22.4    c-1.2,1.6-1.6,3.6-1.2,5.2c0.4,2,2,3.2,3.6,4l159.6,56l-32.8,34.8c-6.8,7.6-21.6,22.8-26.8,28.4l-19.2-2c-4.4-0.8-44.4-6.8-59.2,8    l-17.2,17.2c-1.6,1.6-2,4-1.6,6c0.8,2,2.4,3.6,4.8,4l61.2,9.2l-3.6,4.8c-0.4,0.4-0.4,0.4-0.4,0.8c-2,4-12,25.6-2.4,35.6    c3.2,3.2,6.8,4.4,11.2,4.4c8,0,16.8-3.6,24-7.2c0.4,0,0.8-0.4,1.2-0.8l4-2.8l7.6,61.2c0.4,2.4,2,4,4,4.8s4.4,0,6-1.6l17.2-17.2    c14.4-14.4,9.6-56,8.8-60.4l-2-19.6c5.6-5.2,20.8-20.4,28.4-27.2l34.8-32.8l56,159.6c0.8,2,2,3.2,4,3.6c0.4,0,1.2,0.4,1.6,0.4    c1.2,0,2.8-0.4,3.6-1.2s24-20,22.4-55.2c-1.2-26.4-14.8-148.4-18-172.8l22-20.8c10.4-10.4,19.2-24.8,23.6-38.4    C333.067,26.993,331.867,13.793,324.267,6.193z M25.867,206.993l8.8-8.8c7.6-7.6,34-6.8,49.2-4.4l12,1.2l-14.8,20    c-0.4,0-0.4-0.4-0.8-0.4L25.867,206.993z M133.067,299.393l-8.4,8.4l-6.8-55.6l19.6-15.2l1.2,12    C140.666,264.193,141.067,291.393,133.067,299.393z M316.267,39.393c-4,12-12,24.8-20.8,33.6l-24,22.8c-1.2,1.2-2,3.2-2,5.2    c0,1.2,16.8,142.4,18.4,174.8c0.8,18.4-6.4,31.6-12,38.8l-56-158.8c-0.8-2-2.4-3.2-4.4-4c-2-0.4-4,0-5.6,1.6l-41.6,38.8    c-9.2,8-28.4,26.8-30.8,29.2l-42.4,32.4c-17.6,8.4-21.2,5.2-21.2,5.2c-2-2,0-12.4,4.4-21.2l32-43.2c2.4-2.4,20.8-21.6,28.8-30.4    l39.2-41.6c1.2-1.6,2-3.6,1.6-5.6c-0.4-2-2-3.6-4-4.4l-158.8-56c7.2-5.6,20.4-12.8,38.8-12c32,1.2,173.2,18,174.8,18.4    c2,0.4,3.6-0.4,5.2-2l22.4-24c19.2-19.2,48-30.8,56.4-22.4h0.4v0.4C319.867,18.993,319.867,28.193,316.267,39.393z" data-original="#000000" class="active-path" data-old_color="#000000" fill="#FFFFFF"/>
	</g>
</g></g> </svg>
