<?xml version="1.0"?>
<svg xmlns="http://www.w3.org/2000/svg" xmlns:xlink="http://www.w3.org/1999/xlink" version="1.1" id="Capa_1" x="0px" y="0px" viewBox="0 0 341.6 341.6" style="enable-background:new 0 0 341.6 341.6;" xml:space="preserve" width="512px" height="512px"><g><g>
	<g>
		<path d="M123.163,200h-31.6c-3.2,0-6,2.8-6,6s2.8,6,6,6h31.6c3.2,0,6-2.8,6-6S126.363,200,123.163,200z" data-original="#000000" class="active-path" data-old_color="#000000" fill="#FFFFFF"/>
	</g>
</g><g>
	<g>
		<path d="M245.563,200h-31.6c-3.2,0-6,2.8-6,6c0,3.2,2.8,6,6,6h31.6c3.2,0,6-2.8,6-6S248.763,200,245.563,200z" data-original="#000000" class="active-path" data-old_color="#000000" fill="#FFFFFF"/>
	</g>
</g><g>
	<g>
		<path d="M294.763,332.8l-39.6-77.2c7.6-1.2,14.4-4.8,19.6-10.4c6.4-6.8,9.2-16,8.4-25.6l-14.8-174.4c0-0.4,0.4-1.2,0.4-1.6    c0-0.8-0.4-2-0.8-2.8l-0.4-5.6c-1.6-19.6-18.8-35.2-38.4-35.2h-120c-19.6,0-36.8,16-38.4,35.2l-15.6,184.4    c-0.8,9.6,2.4,18.8,8.4,25.6c6,6.4,14,10,22.8,10.4l-40,77.2c-0.8,2.8,0.4,6.4,3.2,8c0.8,0.4,2,0.8,2.8,0.8c2,0,4.4-1.2,5.2-3.2    l14.8-28.4h197.2l14.8,28.4c1.2,2,3.2,3.2,5.2,3.2c0.8,0,2-0.4,2.8-0.8C295.163,339.2,296.363,335.6,294.763,332.8z M83.163,36.4    c1.2-13.2,13.2-24.4,26.4-24.4h120c13.2,0,25.2,11.2,26.4,24.4V38h-66.8h-41.2h-64.8V36.4z M115.563,145.6l6-71.6    c1.2-13.2,13.2-24.4,26.4-24.4h41.2c13.2,0,25.2,11.2,26.4,24.4l6,71.6H115.563z M221.563,157.6c-0.8,4-2.4,7.2-5.2,10.4    c-4,4.4-9.6,6.8-16,6.8h-64c-6.4,0-12-2.4-16-6.8c-2.8-2.8-4.4-6.4-5.2-10.4H221.563z M73.163,236.4c-4-3.6-6-9.6-5.6-16    l14.4-170.8h38.4c-6,6.4-10,14.4-10.8,23.2l-6.4,77.6c0,0.4,0,0.8,0,0.8s0,0,0,0.4c-0.4,9.2,2.8,17.6,8.8,24    c6.4,6.8,15.2,10.8,24.8,10.8h64.4c9.6,0,18.4-3.6,24.8-10.8c6-6.4,9.2-15.2,8.8-24c0,0,0,0,0-0.4c0-0.4,0-0.8,0-1.2l-6.4-77.6    c-0.8-8.8-4.8-17.2-10.8-23.2h40.4l14.4,170.8c0.4,6.4-1.6,12-5.6,16.4c-4,4.4-9.6,6.8-16,6.8h-161.6    C82.763,243.2,77.163,240.8,73.163,236.4z M78.763,297.6l22-42h141.2l22,42H78.763z" data-original="#000000" class="active-path" data-old_color="#000000" fill="#FFFFFF"/>
	</g>
</g></g> </svg>
