<?xml version="1.0"?>
<svg xmlns="http://www.w3.org/2000/svg" xmlns:xlink="http://www.w3.org/1999/xlink" version="1.1" id="Capa_1" x="0px" y="0px" viewBox="0 0 368 368" style="enable-background:new 0 0 368 368;" xml:space="preserve" width="512px" height="512px"><g><g>
	<g>
		<path d="M344.856,163.234c5.664-6.52,10.304-14.224,14.504-24.056c1.008-2.376,0.816-5.096-0.528-7.304    c-1.344-2.208-3.672-3.624-6.248-3.816c-8.712-0.64-15.608-3.224-23.328-6.936C304.192,109.29,288,83.746,288,56.034    c0-8.32,2.392-17.72,7.304-28.744c1.064-2.376,0.896-5.128-0.44-7.36c-1.336-2.24-3.672-3.68-6.28-3.872    c-1.672-0.128-4.128-0.096-6.312-0.056L280,16.034c-27.696,0-53.368,13.04-69.944,34.936c-8.528-1.912-17.264-2.936-26.056-2.936    c-57.064,0-106.36,40.96-117.528,96.28C29.352,147.154,0,178.202,0,216.034c0,39.696,32.304,72,72,72h32c4.416,0,8-3.584,8-8    c0-4.416-3.584-8-8-8H72c-30.88,0-56-25.12-56-56s25.12-56,55.6-56.072c0.088,0.016,0.184,0.016,0.28,0.024    c0.04,0.008,0.072,0.032,0.112,0.04c0.368,0.056,0.736,0.08,1.104,0.08c0.008,0,0.024,0,0.032,0c4.168,0,8.456,0.544,12.752,1.624    c0.312,0.136,0.64,0.248,0.976,0.336c14.08,3.84,26.352,13.312,33.664,25.968c2.2,3.816,7.096,5.128,10.928,2.92    c3.824-2.208,5.136-7.104,2.92-10.928C125.16,164.09,109.84,152.09,92.2,146.954c-0.368-0.168-0.752-0.304-1.152-0.408    c-2.8-0.752-5.6-1.32-8.4-1.72c10.68-46.608,52.8-80.792,101.352-80.792c5.696,0,11.36,0.52,16.944,1.456    C195.088,77.426,192,90.546,192,104.034c0,33.872,19.792,65.096,50.376,79.528c11.688,5.624,24.344,8.472,37.624,8.472    c19.304,0,37.888-6.336,53.064-17.88C345,184.722,352,199.962,352,216.034c0,30.88-25.12,56-56,56h-32c-4.416,0-8,3.584-8,8    c0,4.416,3.584,8,8,8h32c39.696,0,72-32.304,72-72C368,195.898,359.472,176.77,344.856,163.234z M327.712,157.906    c-13.104,11.688-30.048,18.128-47.712,18.128c-10.856,0-21.184-2.32-30.744-6.912C224.192,157.29,208,131.746,208,104.034    c0-14.184,4.128-27.896,11.96-39.664c12.672-19.192,33.512-31.056,56.296-32.232C273.4,40.698,272,48.594,272,56.034    c0,33.872,19.792,65.096,50.368,79.528c5.296,2.544,11.04,5.016,17.728,6.664C336.536,148.586,332.544,153.602,327.712,157.906z" data-original="#000000" class="active-path" data-old_color="#000000" fill="#FFFFFF"/>
	</g>
</g><g>
	<g>
		<path d="M216,272.034h-44.688l50.344-50.344c3.128-3.128,3.128-8.184,0-11.312s-8.184-3.128-11.312,0l-64,64    c-2.288,2.288-2.976,5.728-1.736,8.72c1.24,2.984,4.16,4.936,7.392,4.936h44.688l-50.344,50.344    c-3.128,3.128-3.128,8.184,0,11.312c1.56,1.56,3.608,2.344,5.656,2.344c2.048,0,4.096-0.784,5.656-2.344l64-64    c2.288-2.288,2.976-5.728,1.736-8.72C222.152,273.986,219.232,272.034,216,272.034z" data-original="#000000" class="active-path" data-old_color="#000000" fill="#FFFFFF"/>
	</g>
</g></g> </svg>
