<?xml version="1.0"?>
<svg xmlns="http://www.w3.org/2000/svg" xmlns:xlink="http://www.w3.org/1999/xlink" version="1.1" id="Capa_1" x="0px" y="0px" viewBox="0 0 368 368" style="enable-background:new 0 0 368 368;" xml:space="preserve" width="512px" height="512px" class=""><g><g>
	<g>
		<path d="M360,208h-33c0.592-5.256,1-10.584,1-16c0-79.4-64.6-144-144-144S40,112.6,40,192c0,5.416,0.408,10.744,1,16H8    c-4.416,0-8,3.584-8,8c0,4.416,3.584,8,8,8h42.16h267.68H360c4.416,0,8-3.584,8-8C368,211.584,364.416,208,360,208z M311,208H57    c-0.664-5.216-1-10.576-1-16c0-70.576,57.424-128,128-128s128,57.424,128,128C312,197.424,311.664,202.784,311,208z" data-original="#000000" class="active-path" data-old_color="#000000" fill="#FFFFFF"/>
	</g>
</g><g>
	<g>
		<path d="M328,256H40c-4.416,0-8,3.584-8,8c0,4.416,3.584,8,8,8h288c4.416,0,8-3.584,8-8C336,259.584,332.416,256,328,256z" data-original="#000000" class="active-path" data-old_color="#000000" fill="#FFFFFF"/>
	</g>
</g><g>
	<g>
		<path d="M296,304H72c-4.416,0-8,3.584-8,8c0,4.416,3.584,8,8,8h224c4.416,0,8-3.584,8-8C304,307.584,300.416,304,296,304z" data-original="#000000" class="active-path" data-old_color="#000000" fill="#FFFFFF"/>
	</g>
</g></g> </svg>
