<?xml version="1.0"?>
<svg xmlns="http://www.w3.org/2000/svg" xmlns:xlink="http://www.w3.org/1999/xlink" version="1.1" id="Capa_1" x="0px" y="0px" viewBox="0 0 353.753 353.753" style="enable-background:new 0 0 353.753 353.753;" xml:space="preserve" width="512px" height="512px"><g><g>
	<path d="M283.711,212.149c-23.906-9.373-49.651-8.885-70.3,1.066c-9.164-11.249-23.116-18.45-38.723-18.45   c-13.62,0-25.979,5.487-34.997,14.36c-12.351-12.808-19.596-31.694-19.596-51.799c0-37.277,24.49-67.604,54.593-67.604   s54.593,30.327,54.593,67.604c0,8.886-1.375,17.521-4.087,25.667c-1.309,3.93,0.817,8.177,4.747,9.485   c3.932,1.309,8.177-0.817,9.485-4.747c3.221-9.677,4.854-19.906,4.854-30.405c0-45.548-31.219-82.604-69.593-82.604   s-69.593,37.056-69.593,82.604c0,20.224,6.262,39.547,17.246,54.457c-17.604-3.573-37.112-1.452-55.014,6.366   c-19.979,8.724-35.99,23.429-45.083,41.407c-9.334,18.457-10.317,38.141-2.769,55.427c10.755,24.63,36.765,38.77,65.726,38.77   c12.389,0,25.318-2.588,37.825-8.049c15.272-6.668,28.326-16.896,37.751-29.579c2.471-3.325,1.778-8.022-1.546-10.493   c-3.323-2.471-8.022-1.78-10.493,1.546c-7.868,10.587-18.834,19.155-31.714,24.78c-34.167,14.917-71.756,4.609-83.803-22.978   c-5.726-13.113-4.871-28.261,2.408-42.654c7.521-14.872,20.91-27.099,37.699-34.431c17.948-7.837,37.643-8.925,54.081-3.231   c-1.714,5.038-2.657,10.428-2.657,16.037c0,27.535,22.401,49.936,49.936,49.936c2.628,0,5.208-0.207,7.729-0.6   c8.551,20.939,26.968,38.471,50.484,47.693c11.546,4.527,23.35,6.67,34.699,6.67c30.334,0,57.415-15.308,67.609-41.306   C349.217,271.369,326.115,228.776,283.711,212.149z M139.752,244.701c0-19.264,15.672-34.936,34.936-34.936   s34.937,15.672,34.937,34.936s-15.673,34.936-34.937,34.936S139.752,263.965,139.752,244.701z M321.244,301.618   c-10.989,28.025-48.163,39.755-82.867,26.146c-19.292-7.565-34.406-21.601-41.606-38.292c16.486-8.165,27.853-25.163,27.853-44.772   c0-6.535-1.275-12.775-3.568-18.5c16.728-7.642,37.588-7.769,57.178-0.087C312.939,239.722,332.233,273.593,321.244,301.618z" data-original="#000000" class="active-path" data-old_color="#000000" fill="#FFFFFF"/>
	<path d="M53.784,117.5c0,4.142,3.357,7.5,7.5,7.5s7.5-3.358,7.5-7.5c0-7.253,1.803-10.558,4.084-14.74   c2.636-4.832,5.916-10.845,5.916-21.923c0-11.079-3.28-17.093-5.916-21.925c-2.281-4.184-4.084-7.488-4.084-14.743   c0-7.254,1.803-10.559,4.084-14.743c2.636-4.832,5.916-10.846,5.916-21.925c0-4.142-3.357-7.5-7.5-7.5s-7.5,3.358-7.5,7.5   c0,7.254-1.803,10.559-4.084,14.743c-2.636,4.832-5.916,10.846-5.916,21.925s3.28,17.094,5.916,21.926   c2.281,4.184,4.084,7.488,4.084,14.743c0,7.253-1.803,10.557-4.084,14.74C57.064,100.408,53.784,106.421,53.784,117.5z" data-original="#000000" class="active-path" data-old_color="#000000" fill="#FFFFFF"/>
	<path d="M269.409,117.5c0,4.142,3.357,7.5,7.5,7.5s7.5-3.358,7.5-7.5c0-7.253,1.803-10.558,4.084-14.74   c2.636-4.832,5.916-10.845,5.916-21.923c0-11.079-3.28-17.093-5.916-21.925c-2.281-4.184-4.084-7.488-4.084-14.743   c0-7.254,1.803-10.559,4.084-14.743c2.636-4.832,5.916-10.846,5.916-21.925c0-4.142-3.357-7.5-7.5-7.5s-7.5,3.358-7.5,7.5   c0,7.254-1.803,10.559-4.084,14.743c-2.636,4.832-5.916,10.846-5.916,21.925s3.28,17.094,5.916,21.926   c2.281,4.184,4.084,7.488,4.084,14.743c0,7.253-1.803,10.557-4.084,14.74C272.689,100.408,269.409,106.421,269.409,117.5z" data-original="#000000" class="active-path" data-old_color="#000000" fill="#FFFFFF"/>
	<path d="M170.166,63.957c4.143,0,7.5-3.358,7.5-7.5c0-10.767,2.059-15.806,4.443-21.642c2.604-6.376,5.557-13.603,5.557-27.315   c0-4.142-3.357-7.5-7.5-7.5s-7.5,3.358-7.5,7.5c0,10.767-2.059,15.806-4.443,21.642c-2.604,6.376-5.557,13.603-5.557,27.315   C162.666,60.599,166.023,63.957,170.166,63.957z" data-original="#000000" class="active-path" data-old_color="#000000" fill="#FFFFFF"/>
</g></g> </svg>
