<?xml version="1.0"?>
<svg xmlns="http://www.w3.org/2000/svg" height="512px" viewBox="0 0 512 512.00044" width="512px"><g><path d="m451 193.269531c0-51.785156-20.285156-100.4375-57.117188-137-36.90625-36.632812-85.820312-56.613281-137.804687-56.26562475-.449219-.00390625-.882813-.00390625-1.332031-.00390625-51.839844 0-100.667969 20.152344-137.621094 56.832031-36.839844 36.566407-57.125 85.019531-57.125 136.4375 0 77.351563 44.40625 119.023438 76.832031 149.453125 22.425781 21.046875 36.167969 34.734375 36.167969 50.277344v59c0 33.085938 26.914062 60 60 60h45c33.082031 0 60-26.914062 60-60v-61c0-.773438-.054688-1.535156-.140625-2.285156 1.949219-11.8125 11.917969-23.328125 28.796875-39.382813 8.003906-7.613281 8.320312-20.269531.707031-28.273437s-20.273437-8.324219-28.273437-.707032c-16.523438 15.714844-31.765625 31.65625-38.269532 51.648438h-91.132812c-7.363281-22.660156-26-40.160156-45.484375-58.441406-31.5625-29.625-64.203125-60.253906-64.203125-120.289063 0-40.675781 16.089844-79.046875 45.304688-108.050781 29.40625-29.1875 68.230468-45.21875 109.449218-45.21875.394532 0 .785156.003906 1.175782.003906.097656.003906.199218.003906.296874 0 .390626 0 .777344-.003906 1.167969-.003906 40.84375 0 79.269531 15.832031 108.308594 44.65625 28.210937 28.003906 44.179687 64.9375 45.242187 104.402344-.292968 1.355468-.445312 2.765625-.445312 4.207031 0 23.132813-4.648438 43.230469-14.207031 61.4375-5.132813 9.78125-1.371094 21.871094 8.410156 27.007813 9.78125 5.132812 21.871094 1.367187 27.003906-8.410157 11.980469-22.816406 18.125-47.507812 18.742188-75.351562.359375-1.5.550781-3.070313.550781-4.679688zm-173 278.730469h-45c-11.027344 0-20-8.972656-20-20v-40h85v40c0 11.027344-8.972656 20-20 20zm-57.0625-316.0625c-9.632812 9.632812-14.9375 22.441406-14.9375 36.0625 0 13.625 5.304688 26.429688 14.9375 36.0625s22.441406 14.9375 36.0625 14.9375c13.625 0 26.429688-5.304688 36.0625-14.9375 7.8125-7.808594 20.476562-7.8125 28.285156 0 7.808594 7.808594 7.8125 20.472656 0 28.285156-17.1875 17.1875-40.039062 26.652344-64.347656 26.652344-24.304688 0-47.15625-9.464844-64.347656-26.652344-17.1875-17.1875-26.652344-40.039062-26.652344-64.347656 0-24.304688 9.464844-47.15625 26.652344-64.347656 17.1875-17.1875 40.039062-26.652344 64.347656-26.652344s47.160156 9.46875 64.347656 26.65625c7.808594 7.808594 7.808594 20.472656 0 28.28125-7.8125 7.8125-20.476562 7.8125-28.285156 0-9.632812-9.632812-22.441406-14.9375-36.0625-14.9375-13.625 0-26.429688 5.304688-36.0625 14.9375zm-200.9375 59.480469c-11.046875 0-20-8.953125-20-20 0-11.042969 8.953125-20 20-20s20 8.957031 20 20c0 11.046875-8.953125 20-20 20zm492-20c0 11.046875-8.953125 20-20 20s-20-8.953125-20-20c0-11.042969 8.953125-20 20-20s20 8.957031 20 20zm-65-111.417969c0-11.042969 8.953125-20 20-20s20 8.957031 20 20c0 11.046875-8.953125 20-20 20s-20-8.953125-20-20zm-422 0c0-11.042969 8.953125-20 20-20s20 8.957031 20 20c0 11.046875-8.953125 20-20 20s-20-8.953125-20-20zm462 219c0 11.046875-8.953125 20-20 20s-20-8.953125-20-20 8.953125-20 20-20 20 8.953125 20 20zm-422 0c0 11.046875-8.953125 20-20 20s-20-8.953125-20-20 8.953125-20 20-20 20 8.953125 20 20zm0 0" data-original="#000000" class="active-path" data-old_color="#000000" fill="#FFFFFF"/></g> </svg>
